<svg width="32" height="32" viewBox="0 0 32 32" fill="none" xmlns="http://www.w3.org/2000/svg">
<path d="M3.73134 30.5778H15.5495C16.3717 30.5779 17.1853 30.4119 17.9404 30.0902C18.6955 29.7685 19.3762 29.2976 19.9409 28.7066L30.4633 17.6963C30.9935 17.1417 31.2889 16.4076 31.2889 15.6444C31.2889 14.8813 30.9935 14.1471 30.4633 13.5926L19.9409 2.58225C19.3762 1.99123 18.6955 1.52042 17.9404 1.19868C17.1853 0.87693 16.3717 0.711019 15.5495 0.711105L3.73134 0.711105C2.93033 0.711105 2.16212 1.02577 1.59572 1.58588C1.02932 2.14599 0.711117 2.90566 0.711117 3.69777V27.5911C0.711117 28.3832 1.02932 29.1429 1.59572 29.703C2.16212 30.2631 2.93033 30.5778 3.73134 30.5778Z" fill="white" stroke="black" stroke-linecap="round" stroke-linejoin="round"/>
</svg>
